<?xml version="1.0" encoding="UTF-8" standalone="no"?><svg xmlns="http://www.w3.org/2000/svg" xmlns:xlink="http://www.w3.org/1999/xlink" contentScriptType="application/ecmascript" contentStyleType="text/css" height="606px" preserveAspectRatio="none" style="width:468px;height:606px;background:#FFFFFF;" version="1.1" viewBox="0 0 468 606" width="468px" zoomAndPan="magnify"><defs><filter height="300%" id="f15wyo9htcnbgy" width="300%" x="-1" y="-1"><feGaussianBlur result="blurOut" stdDeviation="2.0"/><feColorMatrix in="blurOut" result="blurOut2" type="matrix" values="0 0 0 0 0 0 0 0 0 0 0 0 0 0 0 0 0 0 .4 0"/><feOffset dx="4.0" dy="4.0" in="blurOut2" result="blurOut3"/><feBlend in="SourceGraphic" in2="blurOut3" mode="normal"/></filter></defs><g><!--MD5=[21445ba4891fe994249073f7f99fa774]
cluster wr--><polygon fill="#FFFFFF" filter="url(#f15wyo9htcnbgy)" points="157,6,184,6,191,28.2969,397,28.2969,397,474.5,157,474.5,157,6" style="stroke:#000000;stroke-width:1.5;"/><line style="stroke:#000000;stroke-width:1.5;" x1="157" x2="191" y1="28.2969" y2="28.2969"/><text fill="#000000" font-family="sans-serif" font-size="14" font-weight="bold" lengthAdjust="spacing" textLength="21" x="161" y="20.9951">wr</text><path d="M194,304 C194,294 291.5,294 291.5,294 C291.5,294 389,294 389,304 L389,365 C389,375 291.5,375 291.5,375 C291.5,375 194,375 194,365 L194,304 " fill="#FFFFFF" filter="url(#f15wyo9htcnbgy)" style="stroke:#000000;stroke-width:1.5;"/><path d="M194,304 C194,314 291.5,314 291.5,314 C291.5,314 389,314 389,304 " fill="none" style="stroke:#000000;stroke-width:1.5;"/><!--MD5=[4e17860bbeb46249bdbfa4c5755ac524]
entity prov--><rect fill="#FEFECE" filter="url(#f15wyo9htcnbgy)" height="46.2969" style="stroke:#A80036;stroke-width:1.5;" width="74" x="7" y="33"/><rect fill="#FEFECE" height="10" style="stroke:#A80036;stroke-width:1.5;" width="15" x="61" y="38"/><rect fill="#FEFECE" height="2" style="stroke:#A80036;stroke-width:1.5;" width="4" x="59" y="40"/><rect fill="#FEFECE" height="2" style="stroke:#A80036;stroke-width:1.5;" width="4" x="59" y="44"/><text fill="#000000" font-family="sans-serif" font-size="14" lengthAdjust="spacing" textLength="34" x="22" y="65.9951">as24</text><!--MD5=[7edcefaa406c65155265f04249a95b70]
entity file--><polygon fill="#FEFECE" filter="url(#f15wyo9htcnbgy)" points="99.5,38,99.5,74.2969,148.5,74.2969,148.5,48,138.5,38,99.5,38" style="stroke:#000000;stroke-width:1.5;"/><path d="M138.5,38 L138.5,48 L148.5,48 " fill="#FEFECE" style="stroke:#000000;stroke-width:1.5;"/><text fill="#000000" font-family="sans-serif" font-size="14" lengthAdjust="spacing" textLength="29" x="109.5" y="60.9951">cars</text><!--MD5=[4a65e84059005d12693a083370a06717]
entity client--><ellipse cx="341" cy="529.5" fill="#FEFECE" filter="url(#f15wyo9htcnbgy)" rx="8" ry="8" style="stroke:#A80036;stroke-width:1.5;"/><path d="M341,537.5 L341,564.5 M328,545.5 L354,545.5 M341,564.5 L328,579.5 M341,564.5 L354,579.5 " fill="none" filter="url(#f15wyo9htcnbgy)" style="stroke:#A80036;stroke-width:1.5;"/><text fill="#000000" font-family="sans-serif" font-size="14" lengthAdjust="spacing" textLength="37" x="322.5" y="597.9951">client</text><!--MD5=[d694a49b8bee16014f89ead21079a53f]
entity backoffice--><ellipse cx="220" cy="529.5" fill="#FEFECE" filter="url(#f15wyo9htcnbgy)" rx="8" ry="8" style="stroke:#A80036;stroke-width:1.5;"/><path d="M220,537.5 L220,564.5 M207,545.5 L233,545.5 M220,564.5 L207,579.5 M220,564.5 L233,579.5 " fill="none" filter="url(#f15wyo9htcnbgy)" style="stroke:#A80036;stroke-width:1.5;"/><text fill="#000000" font-family="sans-serif" font-size="14" lengthAdjust="spacing" textLength="70" x="185" y="597.9951">backoffice</text><!--MD5=[3f2528b1916f297db3f7bc315380272e]
entity support--><ellipse cx="434" cy="412.5" fill="#FEFECE" filter="url(#f15wyo9htcnbgy)" rx="8" ry="8" style="stroke:#A80036;stroke-width:1.5;"/><path d="M434,420.5 L434,447.5 M421,428.5 L447,428.5 M434,447.5 L421,462.5 M434,447.5 L447,462.5 " fill="none" filter="url(#f15wyo9htcnbgy)" style="stroke:#A80036;stroke-width:1.5;"/><text fill="#000000" font-family="sans-serif" font-size="14" lengthAdjust="spacing" textLength="54" x="407" y="480.9951">support</text><!--MD5=[45e20c9239781e46724482bd956b4e9b]
entity crawl--><rect fill="#FEFECE" filter="url(#f15wyo9htcnbgy)" height="46.2969" style="stroke:#A80036;stroke-width:1.5;" width="89" x="173.5" y="33"/><rect fill="#FEFECE" height="10" style="stroke:#A80036;stroke-width:1.5;" width="15" x="242.5" y="38"/><rect fill="#FEFECE" height="2" style="stroke:#A80036;stroke-width:1.5;" width="4" x="240.5" y="40"/><rect fill="#FEFECE" height="2" style="stroke:#A80036;stroke-width:1.5;" width="4" x="240.5" y="44"/><text fill="#000000" font-family="sans-serif" font-size="14" lengthAdjust="spacing" textLength="49" x="188.5" y="65.9951">crawler</text><!--MD5=[1e0e2dbac2f3cca3269c18ad1edf5798]
entity q1--><path d="M189,115 L253,115 C258,115 258,128.1484 258,128.1484 C258,128.1484 258,141.2969 253,141.2969 L189,141.2969 C184,141.2969 184,128.1484 184,128.1484 C184,128.1484 184,115 189,115 " fill="#FEFECE" filter="url(#f15wyo9htcnbgy)" style="stroke:#A80036;stroke-width:1.5;"/><path d="M253,115 C248,115 248,128.1484 248,128.1484 C248,141.2969 253,141.2969 253,141.2969 " fill="none" style="stroke:#A80036;stroke-width:1.5;"/><text fill="#000000" font-family="sans-serif" font-size="14" lengthAdjust="spacing" textLength="54" x="189" y="132.9951">queue1</text><!--MD5=[a1bcc5dfa9a2ffc8f4c80b0858fe135c]
entity cal--><rect fill="#FEFECE" filter="url(#f15wyo9htcnbgy)" height="46.2969" style="stroke:#A80036;stroke-width:1.5;" width="106" x="176" y="177"/><rect fill="#FEFECE" height="10" style="stroke:#A80036;stroke-width:1.5;" width="15" x="262" y="182"/><rect fill="#FEFECE" height="2" style="stroke:#A80036;stroke-width:1.5;" width="4" x="260" y="184"/><rect fill="#FEFECE" height="2" style="stroke:#A80036;stroke-width:1.5;" width="4" x="260" y="188"/><text fill="#000000" font-family="sans-serif" font-size="14" lengthAdjust="spacing" textLength="66" x="191" y="209.9951">calculator</text><!--MD5=[5aa9fe14e2b4221da937042b0842c101]
entity q2--><path d="M202,259 L266,259 C271,259 271,272.1484 271,272.1484 C271,272.1484 271,285.2969 266,285.2969 L202,285.2969 C197,285.2969 197,272.1484 197,272.1484 C197,272.1484 197,259 202,259 " fill="#FEFECE" filter="url(#f15wyo9htcnbgy)" style="stroke:#A80036;stroke-width:1.5;"/><path d="M266,259 C261,259 261,272.1484 261,272.1484 C261,285.2969 266,285.2969 266,285.2969 " fill="none" style="stroke:#A80036;stroke-width:1.5;"/><text fill="#000000" font-family="sans-serif" font-size="14" lengthAdjust="spacing" textLength="54" x="202" y="276.9951">queue2</text><!--MD5=[fe2e87a9fbde6b36e5fa52b641d8fb64]
entity wa--><rect fill="#FEFECE" filter="url(#f15wyo9htcnbgy)" height="46.2969" style="stroke:#A80036;stroke-width:1.5;" width="95" x="293.5" y="420.5"/><rect fill="#FEFECE" height="10" style="stroke:#A80036;stroke-width:1.5;" width="15" x="368.5" y="425.5"/><rect fill="#FEFECE" height="2" style="stroke:#A80036;stroke-width:1.5;" width="4" x="366.5" y="427.5"/><rect fill="#FEFECE" height="2" style="stroke:#A80036;stroke-width:1.5;" width="4" x="366.5" y="431.5"/><text fill="#000000" font-family="sans-serif" font-size="14" lengthAdjust="spacing" textLength="55" x="308.5" y="453.4951">webapp</text><!--MD5=[b5cff5e869cb78431825b957da42f59c]
entity bo--><rect fill="#FEFECE" filter="url(#f15wyo9htcnbgy)" height="46.2969" style="stroke:#A80036;stroke-width:1.5;" width="110" x="165" y="420.5"/><rect fill="#FEFECE" height="10" style="stroke:#A80036;stroke-width:1.5;" width="15" x="255" y="425.5"/><rect fill="#FEFECE" height="2" style="stroke:#A80036;stroke-width:1.5;" width="4" x="253" y="427.5"/><rect fill="#FEFECE" height="2" style="stroke:#A80036;stroke-width:1.5;" width="4" x="253" y="431.5"/><text fill="#000000" font-family="sans-serif" font-size="14" lengthAdjust="spacing" textLength="70" x="180" y="453.4951">backoffice</text><!--MD5=[fb90eb9c71dbb7b9a00ff46753311819]
entity rates--><rect fill="#FEFECE" filter="url(#f15wyo9htcnbgy)" height="46.2969" style="stroke:#A80036;stroke-width:1.5;" width="75" x="202.5" y="321"/><rect fill="#FEFECE" height="10" style="stroke:#A80036;stroke-width:1.5;" width="15" x="257.5" y="326"/><rect fill="#FEFECE" height="2" style="stroke:#A80036;stroke-width:1.5;" width="4" x="255.5" y="328"/><rect fill="#FEFECE" height="2" style="stroke:#A80036;stroke-width:1.5;" width="4" x="255.5" y="332"/><text fill="#000000" font-family="sans-serif" font-size="14" lengthAdjust="spacing" textLength="35" x="217.5" y="353.9951">rates</text><!--MD5=[e6686c172351e6dc0f366c2959fbb34a]
entity clients--><rect fill="#FEFECE" filter="url(#f15wyo9htcnbgy)" height="46.2969" style="stroke:#A80036;stroke-width:1.5;" width="85" x="295.5" y="321"/><rect fill="#FEFECE" height="10" style="stroke:#A80036;stroke-width:1.5;" width="15" x="360.5" y="326"/><rect fill="#FEFECE" height="2" style="stroke:#A80036;stroke-width:1.5;" width="4" x="358.5" y="328"/><rect fill="#FEFECE" height="2" style="stroke:#A80036;stroke-width:1.5;" width="4" x="358.5" y="332"/><text fill="#000000" font-family="sans-serif" font-size="14" lengthAdjust="spacing" textLength="45" x="310.5" y="353.9951">clients</text><path d="M81.1875,56 C87.208,56 93.2285,56 99.249,56 " fill="none" style="stroke:#A80036;stroke-width:1.0;"/><polygon fill="#A80036" points="99.249,56,90.249,52,94.249,56,90.249,60,99.249,56" style="stroke:#A80036;stroke-width:1.0;"/><path d="M148.6016,56 C156.8246,56 165.0475,56 173.2705,56 " fill="none" style="stroke:#A80036;stroke-width:1.0;"/><polygon fill="#A80036" points="148.6016,56,157.6016,60,153.6016,56,157.6016,52,148.6016,56" style="stroke:#A80036;stroke-width:1.0;"/><path d="M218.9492,79.1484 C219.4573,91.0045 220.0634,105.1454 220.4843,114.9666 " fill="none" style="stroke:#A80036;stroke-width:1.0;"/><polygon fill="#A80036" points="220.4843,114.9666,224.0953,105.8036,220.2702,109.9712,216.1026,106.1461,220.4843,114.9666" style="stroke:#A80036;stroke-width:1.0;"/><path d="M222.3935,141.1931 C223.5127,150.9858 225.114,164.9975 226.4598,176.7734 " fill="none" style="stroke:#A80036;stroke-width:1.0;"/><polygon fill="#A80036" points="226.4598,176.7734,229.412,167.3774,225.8921,171.8058,221.4638,168.2858,226.4598,176.7734" style="stroke:#A80036;stroke-width:1.0;"/><path d="M230.582,223.1484 C231.4289,235.0045 232.439,249.1454 233.1405,258.9666 " fill="none" style="stroke:#A80036;stroke-width:1.0;"/><polygon fill="#A80036" points="233.1405,258.9666,236.4891,249.7045,232.7842,253.9793,228.5094,250.2744,233.1405,258.9666" style="stroke:#A80036;stroke-width:1.0;"/><path d="M235.0451,285.1931 C235.8845,294.9858 237.0855,308.9975 238.0949,320.7734 " fill="none" style="stroke:#A80036;stroke-width:1.0;"/><polygon fill="#A80036" points="238.0949,320.7734,241.3116,311.4647,237.6679,315.7917,233.3409,312.1479,238.0949,320.7734" style="stroke:#A80036;stroke-width:1.0;"/><path d="M262.9185,367.1243 C279.4477,383.0807 301.6638,404.527 318.1722,420.4633 " fill="none" style="stroke:#A80036;stroke-width:1.0;"/><polygon fill="#A80036" points="262.9185,367.1243,266.6155,376.2529,266.5158,370.5969,272.1718,370.4972,262.9185,367.1243" style="stroke:#A80036;stroke-width:1.0;"/><path d="M338.6807,367.1243 C339.1717,383.0807 339.8316,404.527 340.3219,420.4633 " fill="none" style="stroke:#A80036;stroke-width:1.0;"/><polygon fill="#A80036" points="338.6807,367.1243,334.9594,376.243,338.8345,372.1219,342.9556,375.997,338.6807,367.1243" style="stroke:#A80036;stroke-width:1.0;"/><path d="M341,466.6732 C341,481.685 341,501.9419 341,519.7021 " fill="none" style="stroke:#A80036;stroke-width:1.0;"/><polygon fill="#A80036" points="341,466.6732,337,475.6732,341,471.6732,345,475.6732,341,466.6732" style="stroke:#A80036;stroke-width:1.0;"/><path d="M363.548,367.1391 C375.2939,377.6621 389.205,390.6234 401,403 C402.9727,405.07 404.9679,407.2397 406.9491,409.4518 " fill="none" style="stroke:#A80036;stroke-width:1.0;"/><polygon fill="#A80036" points="363.548,367.1391,367.5822,376.1238,367.272,370.4754,372.9204,370.1653,363.548,367.1391" style="stroke:#A80036;stroke-width:1.0;"/><path d="M235.4617,367.1243 C232.1886,383.0807 227.7893,404.527 224.5203,420.4633 " fill="none" style="stroke:#A80036;stroke-width:1.0;"/><polygon fill="#A80036" points="235.4617,367.1243,229.7348,375.1369,234.457,372.0223,237.5716,376.7445,235.4617,367.1243" style="stroke:#A80036;stroke-width:1.0;"/><path d="M220,466.6732 C220,481.685 220,501.9419 220,519.7021 " fill="none" style="stroke:#A80036;stroke-width:1.0;"/><polygon fill="#A80036" points="220,466.6732,216,475.6732,220,471.6732,224,475.6732,220,466.6732" style="stroke:#A80036;stroke-width:1.0;"/><!--MD5=[49f95b23a0326edf2ef1212e5f95c8f5]
@startuml
!pragma layout smetana
!pragma horizontalLineBetweenDifferentPackageAllowed

component "as24" as prov
file "cars" as file

prov -r-> file

folder "wr" {
    [crawler] as crawl
    queue queue1 as q1
    [calculator] as cal
    queue queue2 as q2
    
    database {
        [rates]
        [clients]
    }

    [webapp] as wa
    [backoffice] as bo
}

actor client
actor backoffice
actor support

file <-r- crawl
crawl -d-> q1
q1 -d-> cal
cal -d-> q2
q2 - -> rates
rates <- - wa
clients <- - wa
wa <- - client
clients <- - support
rates <- - bo
bo <- - backoffice

@enduml

PlantUML version 1.2021.9(Sun Jul 25 12:13:56 CEST 2021)
(GPL source distribution)
Java Runtime: OpenJDK Runtime Environment
JVM: OpenJDK 64-Bit Server VM
Default Encoding: UTF-8
Language: de
Country: DE
--></g></svg>